<?xml version="1.0" standalone="no"?>
<!DOCTYPE svg PUBLIC "-//W3C//DTD SVG 20010904//EN"
 "http://www.w3.org/TR/2001/REC-SVG-20010904/DTD/svg10.dtd">
<svg version="1.0" xmlns="http://www.w3.org/2000/svg"
 width="500.000000pt" height="500.000000pt" viewBox="0 0 500.000000 500.000000"
 preserveAspectRatio="xMidYMid meet">
<metadata>
Created by potrace 1.14, written by Peter Selinger 2001-2017
</metadata>
<g transform="translate(0.000000,500.000000) scale(0.100000,-0.100000)"
fill="#000000" stroke="none">
<path d="M2214 4288 l-19 -23 23 19 c21 18 27 26 19 26 -2 0 -12 -10 -23 -22z"/>
<path d="M2314 4158 l-19 -23 23 19 c21 18 27 26 19 26 -2 0 -12 -10 -23 -22z"/>
<path d="M2309 4093 l-24 -28 28 24 c25 23 32 31 24 31 -2 0 -14 -12 -28 -27z"/>
<path d="M2025 4040 c-3 -5 -1 -10 4 -10 6 0 11 5 11 10 0 6 -2 10 -4 10 -3 0
-8 -4 -11 -10z"/>
<path d="M2339 4023 c-13 -16 -12 -17 4 -4 16 13 21 21 13 21 -2 0 -10 -8 -17
-17z"/>
<path d="M2760 4011 c0 -5 7 -15 17 -22 15 -13 15 -12 4 9 -12 23 -21 28 -21
13z"/>
<path d="M1923 3936 c-18 -23 -44 -64 -58 -91 -14 -28 -20 -42 -13 -32 29 41
40 53 35 37 -10 -30 -14 -45 -10 -37 3 4 11 7 19 7 10 0 12 5 8 13 -6 9 -4 9
8 -1 9 -8 19 -9 22 -4 6 10 -23 39 -33 34 -14 -8 -10 16 4 28 14 12 18 11 26
-1 5 -9 9 -10 9 -2 0 6 -5 15 -10 18 -6 4 -8 11 -4 16 3 5 10 6 16 3 7 -4 8
-2 4 5 -4 6 -2 19 5 27 6 8 10 16 8 18 -2 2 -18 -15 -36 -38z"/>
<path d="M1987 3935 c-9 -19 -13 -35 -8 -35 9 0 34 60 28 66 -2 2 -11 -12 -20
-31z"/>
<path d="M2815 3933 c15 -24 30 -43 32 -43 7 0 -31 61 -46 73 -8 7 -2 -7 14
-30z"/>
<path d="M2880 3820 c17 -33 33 -60 35 -60 3 0 -8 27 -25 60 -17 33 -33 60
-35 60 -3 0 8 -27 25 -60z"/>
<path d="M1900 3780 c-38 -34 -70 -65 -70 -69 0 -5 -10 -21 -22 -37 -14 -17
-29 -61 -39 -110 -9 -44 -20 -92 -24 -105 -7 -21 -6 -22 8 -10 13 10 12 -1 -8
-58 -23 -67 -52 -120 -67 -121 -4 0 -5 8 -2 18 4 13 2 12 -7 -3 -7 -11 -14
-36 -16 -55 -8 -82 -9 -83 -49 -101 -29 -13 -34 -18 -17 -18 12 -1 33 3 47 9
24 9 25 8 16 -15 -6 -16 -5 -25 3 -28 7 -3 -1 -8 -18 -11 -64 -15 -72 -25 -23
-25 49 -1 51 -5 31 -61 -3 -8 -5 -34 -4 -57 3 -44 -16 -121 -32 -138 -7 -7 -8
-4 -4 8 4 11 1 17 -9 17 -13 0 -15 7 -10 33 13 62 14 97 3 97 -6 0 4 13 23 29
20 17 31 33 26 38 -5 4 -11 3 -13 -4 -2 -7 -20 -22 -39 -33 -19 -12 -32 -25
-30 -29 3 -4 0 -27 -5 -52 -12 -52 -17 -269 -6 -269 4 0 7 -8 7 -17 0 -10 6
-30 14 -44 7 -14 16 -37 20 -52 8 -33 23 -36 22 -4 -1 15 4 22 17 21 9 -1 17
2 17 7 0 5 7 6 15 3 19 -8 19 10 0 29 -8 8 -11 17 -8 20 3 3 -6 9 -19 12 -21
5 -24 12 -23 45 1 38 -18 63 -29 37 -2 -7 -5 0 -5 16 -1 25 1 26 19 15 11 -7
28 -33 39 -59 18 -41 48 -78 58 -71 12 8 13 -1 2 -15 -13 -15 -12 -15 8 -4 21
11 22 14 9 34 -10 16 -12 33 -6 62 4 22 8 31 9 21 0 -10 18 -41 39 -68 33 -45
37 -47 40 -26 2 12 17 39 33 59 35 44 63 43 83 -5 15 -33 86 -120 93 -113 2 3
-3 30 -12 61 -17 59 -10 111 19 135 10 8 10 1 2 -38 -10 -53 0 -109 29 -146
12 -17 12 -13 -1 29 -20 60 -14 143 15 192 24 41 21 42 -16 8 -62 -57 -73 -69
-74 -84 0 -11 -2 -11 -6 -2 -3 7 7 29 22 48 l28 36 -24 22 c-49 44 -53 62 -24
113 31 57 31 67 0 28 -24 -29 -25 -30 -25 -6 0 21 -2 22 -17 10 -17 -13 -17
-12 0 7 14 17 15 27 8 47 -9 22 -4 35 31 89 22 35 65 94 96 132 31 38 50 66
44 62 -6 -4 -50 -56 -98 -116 -47 -61 -88 -110 -91 -110 -3 0 0 6 6 14 10 12
9 20 -5 40 -13 21 -14 29 -4 41 17 20 1 19 -22 -2 -17 -15 -18 -14 -12 18 3
19 7 52 8 74 0 22 11 58 24 79 18 31 20 41 10 47 -7 5 -19 7 -26 4 -17 -6 17
41 52 74 14 14 26 29 26 35 0 6 -22 -11 -49 -38 -46 -45 -49 -46 -54 -25 -6
23 39 86 137 193 20 21 35 41 33 43 -3 2 -36 -30 -75 -72 -66 -70 -98 -94 -86
-61 3 8 1 23 -5 34 -9 18 -3 28 51 76 34 31 65 56 70 56 4 0 8 5 8 11 0 12
-57 -27 -107 -74 -35 -33 -37 -33 -47 0 -7 21 32 60 149 151 17 13 23 20 15
16 -34 -17 -108 -70 -148 -107 -24 -21 -46 -36 -49 -33 -8 7 67 95 133 155 78
72 49 64 -36 -9z m-39 -318 c-5 -9 -19 -26 -30 -36 -21 -19 -21 -19 -21 2 0
11 10 28 22 36 30 21 41 20 29 -2z m-21 -82 c0 -5 -5 -10 -11 -10 -5 0 -7 5
-4 10 3 6 8 10 11 10 2 0 4 -4 4 -10z m60 -38 c0 -5 -7 -17 -15 -28 -14 -18
-14 -17 -4 9 12 27 19 34 19 19z m-155 -90 c-15 -16 -16 -15 -4 12 7 15 15 23
17 16 3 -7 -3 -19 -13 -28z m145 -146 c0 -2 -8 -10 -17 -17 -16 -13 -17 -12
-4 4 13 16 21 21 21 13z m-314 -224 c-10 -11 -16 -12 -16 -4 0 7 4 12 9 12 5
0 7 10 4 23 -4 20 -3 21 7 3 10 -14 9 -21 -4 -34z m100 -199 c1 -82 0 -90 -13
-77 -9 8 -13 17 -10 20 3 3 -5 26 -18 50 -13 24 -19 44 -14 44 5 0 9 11 9 24
0 13 3 38 7 56 l6 33 16 -29 c10 -19 16 -60 17 -121z m-115 60 c-12 -20 -14
-14 -5 12 4 9 9 14 11 11 3 -2 0 -13 -6 -23z m6 -105 c-3 -8 -6 -5 -6 6 -1 11
2 17 5 13 3 -3 4 -12 1 -19z m382 5 c-2 -10 3 -29 10 -41 21 -39 5 -36 -18 3
-11 20 -17 33 -11 30 5 -3 10 1 10 9 0 9 3 16 6 16 3 0 4 -8 3 -17z"/>
<path d="M2899 3719 c-13 -25 -7 -125 8 -140 8 -8 11 0 9 27 -1 22 -5 44 -8
50 -4 5 -3 27 2 47 9 42 6 47 -11 16z"/>
<path d="M2738 3703 c-7 -13 3 -93 12 -93 4 0 5 21 2 48 -5 50 -7 58 -14 45z"/>
<path d="M2568 3692 c-15 -6 -13 -11 11 -41 21 -26 38 -35 73 -41 l46 -7 -5
36 c-8 60 -9 61 -60 60 -26 0 -56 -3 -65 -7z"/>
<path d="M2769 3561 c21 -38 133 -183 138 -178 6 7 -129 196 -140 197 -4 0 -3
-8 2 -19z"/>
<path d="M2920 3545 c0 -5 5 -17 10 -25 5 -8 10 -10 10 -5 0 6 -5 17 -10 25
-5 8 -10 11 -10 5z"/>
<path d="M2940 3495 c0 -5 5 -17 10 -25 5 -8 10 -10 10 -5 0 6 -5 17 -10 25
-5 8 -10 11 -10 5z"/>
<path d="M2960 3446 c0 -13 71 -148 76 -143 2 2 -12 35 -32 73 -40 74 -44 81
-44 70z"/>
<path d="M2285 3374 c-27 -8 -65 -15 -82 -17 -31 -2 -48 -17 -20 -17 22 0 139
30 156 40 21 12 8 11 -54 -6z"/>
<path d="M2700 3377 c0 -3 12 -12 26 -22 15 -9 23 -12 20 -6 -7 11 -46 35 -46
28z"/>
<path d="M2780 3324 c0 -7 111 -57 115 -52 2 2 -23 16 -55 30 -33 14 -60 24
-60 22z"/>
<path d="M2930 3273 c-35 -14 -39 -49 -10 -83 l19 -22 43 25 c49 28 84 64 75
74 -10 9 -109 14 -127 6z"/>
<path d="M1610 3215 c-19 -19 -29 -35 -24 -35 13 0 69 58 63 65 -3 2 -21 -11
-39 -30z"/>
<path d="M2563 3220 c-29 -12 -30 -24 -2 -15 40 13 84 7 139 -19 30 -14 62
-26 70 -26 8 0 -18 16 -59 35 -74 35 -108 41 -148 25z"/>
<path d="M2462 3153 l-38 -38 36 30 c19 16 39 33 45 37 5 5 6 8 2 8 -4 0 -25
-17 -45 -37z"/>
<path d="M2860 3160 c-34 -7 -34 -7 -5 -8 17 0 39 3 50 8 24 10 4 10 -45 0z"/>
<path d="M2630 2992 c0 -8 57 -60 127 -115 46 -36 22 -10 -52 56 -41 38 -75
64 -75 59z"/>
<path d="M2571 2754 c0 -11 3 -14 6 -6 3 7 2 16 -1 19 -3 4 -6 -2 -5 -13z"/>
<path d="M2713 2685 c0 -38 2 -53 4 -32 2 20 2 52 0 70 -2 17 -4 1 -4 -38z"/>
<path d="M2601 2654 c0 -11 3 -14 6 -6 3 7 2 16 -1 19 -3 4 -6 -2 -5 -13z"/>
<path d="M2081 2615 c0 -27 3 -56 8 -63 5 -8 6 8 4 40 -6 73 -11 83 -12 23z"/>
<path d="M1860 2585 c-10 -13 -9 -15 8 -15 15 0 20 5 16 15 -4 8 -7 15 -9 15
-1 0 -8 -7 -15 -15z"/>
<path d="M2702 2580 c0 -14 2 -19 5 -12 2 6 2 18 0 25 -3 6 -5 1 -5 -13z"/>
<path d="M2681 2509 c-16 -53 -8 -61 9 -9 7 22 11 42 8 45 -3 3 -10 -13 -17
-36z"/>
<path d="M2281 2394 c0 -11 3 -14 6 -6 3 7 2 16 -1 19 -3 4 -6 -2 -5 -13z"/>
<path d="M2280 2292 c63 -62 120 -112 126 -112 16 0 33 -75 41 -169 6 -87 -13
-276 -31 -290 -16 -13 -202 -44 -226 -38 -11 3 -20 2 -20 -3 0 -4 -28 -11 -63
-14 -34 -4 -69 -12 -77 -17 -11 -7 -8 -8 10 -4 14 3 66 6 116 8 51 1 90 6 87
10 -3 5 7 7 23 5 15 -2 29 -8 31 -14 5 -15 -57 -24 -80 -12 -25 13 -167 -10
-167 -27 0 -19 -46 -24 -88 -10 -20 7 -39 9 -42 5 -9 -15 -80 -9 -97 8 -10 11
-32 17 -60 16 -30 0 -43 4 -43 14 0 8 7 11 18 8 19 -5 91 -14 162 -20 25 -3
61 -1 80 4 28 6 20 8 -45 9 -190 4 -329 57 -435 167 -48 50 -100 137 -100 167
0 9 -4 18 -9 21 -19 12 -31 102 -18 135 8 23 9 36 1 49 -7 11 -8 28 -2 50 17
62 3 53 -34 -20 -110 -221 -141 -518 -77 -733 26 -86 76 -188 89 -180 5 3 7 0
5 -7 -8 -20 46 -97 112 -159 92 -87 222 -155 385 -200 75 -21 123 -25 98 -9
-12 8 -11 10 7 10 31 0 75 -18 69 -29 -3 -5 13 -12 37 -16 75 -12 290 -22 316
-15 22 7 23 9 6 10 -11 1 23 8 75 15 52 6 111 15 130 19 26 5 31 4 20 -3 -48
-34 71 6 230 76 164 73 296 122 358 134 l47 8 -56 -3 c-32 -3 -91 -18 -134
-35 -43 -18 -80 -30 -82 -28 -2 3 15 12 37 21 l41 16 -30 37 c-17 21 -31 43
-31 49 0 28 157 27 275 -2 14 -3 12 0 -6 10 -39 22 -151 37 -224 30 -64 -7
-72 -2 -54 31 3 6 5 40 5 77 l-1 68 70 0 c242 -1 476 -166 571 -403 14 -34 22
-48 19 -32 -13 71 -79 180 -155 255 -126 125 -257 188 -412 197 -49 3 -88 7
-88 9 0 2 5 14 11 28 9 20 9 29 -1 41 -8 10 -10 19 -4 23 17 13 15 52 -3 52
-13 0 -14 3 -6 11 17 17 151 14 218 -5 140 -41 296 -149 351 -242 30 -51 42
-59 18 -11 -45 87 -140 168 -267 228 -92 43 -159 59 -247 59 -41 0 -70 4 -63
8 6 4 14 24 18 45 4 20 11 40 16 43 5 3 7 10 4 15 -7 10 12 12 90 9 118 -4
299 -97 421 -217 73 -72 128 -165 164 -276 6 -21 14 -36 17 -34 9 9 -59 166
-96 223 -102 156 -338 307 -503 322 -32 2 -61 9 -64 13 -3 5 -1 9 4 9 6 0 13
12 16 26 7 26 8 26 84 22 50 -3 106 -15 162 -35 47 -17 94 -33 105 -37 13 -5
12 -2 -5 8 -34 21 -162 62 -236 75 -50 9 -85 8 -200 -9 -76 -11 -155 -25 -174
-30 -19 -5 -46 -11 -60 -14 -14 -3 -63 -15 -110 -28 -64 -17 -79 -23 -61 -28
l24 -6 -25 -16 c-15 -10 -36 -15 -49 -12 -19 5 -21 3 -9 -5 12 -8 12 -11 -3
-17 -10 -4 -16 -13 -13 -21 8 -20 -21 -28 -50 -13 -17 9 -21 17 -14 24 7 7 3
14 -12 23 -23 12 -23 12 7 13 17 1 48 8 70 15 l40 14 -58 -3 c-58 -3 -59 -3
-53 23 13 63 18 299 7 362 l-11 65 48 51 c26 28 56 66 66 84 22 39 19 36 -53
-48 -29 -34 -62 -65 -73 -69 -27 -8 -53 21 -69 77 -7 21 -16 39 -20 39 -5 0
-4 -12 2 -26 5 -15 7 -29 4 -32 -5 -6 -44 76 -45 95 0 6 -4 15 -10 18 -5 3 -3
-13 5 -36 9 -23 14 -44 12 -45 -2 -2 -34 24 -73 58 -38 33 -17 11 46 -50z
m465 -532 c-11 -5 -29 -8 -40 -8 -16 0 -15 2 5 8 34 11 60 11 35 0z m-1185
-20 c25 -19 25 -20 3 -20 -12 0 -27 9 -33 20 -13 25 -2 25 30 0z m780 -64 c0
-11 -19 -15 -25 -6 -3 5 1 10 9 10 9 0 16 -2 16 -4z m20 -52 c0 -8 -4 -12 -10
-9 -5 3 -10 10 -10 16 0 5 5 9 10 9 6 0 10 -7 10 -16z m-639 -164 l24 -21 -32
16 c-32 15 -42 25 -24 25 5 0 19 -9 32 -20z m-411 -47 c0 -22 -8 -14 -19 20
-10 29 -9 30 4 13 8 -11 15 -26 15 -33z m34 -79 c3 -8 2 -12 -4 -9 -6 3 -10
10 -10 16 0 14 7 11 14 -7z m236 -261 c0 -7 -39 17 -46 28 -3 6 5 3 20 -6 14
-10 26 -19 26 -22z m1345 -23 c-3 -5 -12 -10 -18 -10 -7 0 -6 4 3 10 19 12 23
12 15 0z m-1205 -45 c14 -8 21 -14 15 -14 -5 0 -21 6 -35 14 -14 8 -20 14 -15
14 6 0 21 -6 35 -14z m1047 -26 c-30 -17 -87 -40 -87 -34 0 7 81 45 95 44 6 0
2 -4 -8 -10z m-414 -86 c-7 -2 -21 -2 -30 0 -10 3 -4 5 12 5 17 0 24 -2 18 -5z"/>
<path d="M1685 2230 c-4 -12 -5 -24 -2 -27 3 -2 8 5 12 17 4 12 5 24 2 27 -3
2 -8 -5 -12 -17z"/>
<path d="M1635 2124 c-9 -15 -12 -23 -6 -20 11 7 35 46 28 46 -3 0 -12 -12
-22 -26z"/>
<path d="M1585 2060 c-16 -16 -26 -32 -24 -34 3 -3 17 10 32 29 34 43 30 45
-8 5z"/>
<path d="M1697 2063 c-4 -3 -7 -11 -7 -17 0 -6 5 -5 12 2 6 6 9 14 7 17 -3 3
-9 2 -12 -2z"/>
<path d="M1470 2055 c0 -5 5 -17 10 -25 5 -8 10 -10 10 -5 0 6 -5 17 -10 25
-5 8 -10 11 -10 5z"/>
<path d="M1550 1890 c11 -22 23 -40 25 -40 3 0 -4 18 -15 40 -11 22 -23 40
-25 40 -3 0 4 -18 15 -40z"/>
<path d="M1620 1871 c0 -6 4 -13 10 -16 6 -3 7 1 4 9 -7 18 -14 21 -14 7z"/>
<path d="M1780 1856 c0 -2 8 -10 18 -17 15 -13 16 -12 3 4 -13 16 -21 21 -21
13z"/>
<path d="M1590 1820 c6 -11 13 -20 16 -20 2 0 0 9 -6 20 -6 11 -13 20 -16 20
-2 0 0 -9 6 -20z"/>
<path d="M1660 1800 c6 -11 13 -20 16 -20 2 0 0 9 -6 20 -6 11 -13 20 -16 20
-2 0 0 -9 6 -20z"/>
<path d="M2120 1799 c0 -17 37 -99 44 -99 6 0 -32 101 -40 109 -2 2 -4 -2 -4
-10z"/>
<path d="M1749 1762 c17 -22 38 -45 48 -53 10 -8 -2 10 -26 39 -51 60 -68 71
-22 14z"/>
<path d="M3520 1718 c0 -3 25 -22 55 -43 31 -21 76 -61 102 -89 39 -44 41 -45
13 -8 -31 41 -88 92 -142 127 -16 9 -28 15 -28 13z"/>
<path d="M3740 1503 c13 -18 25 -33 27 -33 8 0 -17 38 -33 51 -11 9 -9 2 6
-18z"/>
<path d="M3790 1420 c11 -22 23 -40 25 -40 3 0 -4 18 -15 40 -11 22 -23 40
-25 40 -3 0 4 -18 15 -40z"/>
<path d="M3278 1133 c7 -3 16 -2 19 1 4 3 -2 6 -13 5 -11 0 -14 -3 -6 -6z"/>
<path d="M3490 1066 c0 -2 8 -10 18 -17 15 -13 16 -12 3 4 -13 16 -21 21 -21
13z"/>
<path d="M3652 920 c0 -14 2 -19 5 -12 2 6 2 18 0 25 -3 6 -5 1 -5 -13z"/>
<path d="M1978 913 c6 -2 18 -2 25 0 6 3 1 5 -13 5 -14 0 -19 -2 -12 -5z"/>
<path d="M2558 903 c7 -3 16 -2 19 1 4 3 -2 6 -13 5 -11 0 -14 -3 -6 -6z"/>
<path d="M3662 850 c0 -14 2 -19 5 -12 2 6 2 18 0 25 -3 6 -5 1 -5 -13z"/>
<path d="M3661 794 c0 -11 3 -14 6 -6 3 7 2 16 -1 19 -3 4 -6 -2 -5 -13z"/>
<path d="M3709 673 c-13 -16 -12 -17 4 -4 16 13 21 21 13 21 -2 0 -10 -8 -17
-17z"/>
<path d="M3590 543 l-65 -68 68 65 c62 60 72 70 64 70 -1 0 -32 -30 -67 -67z"/>
<path d="M3461 440 c-13 -11 -19 -20 -14 -20 6 0 18 9 28 20 23 25 17 25 -14
0z"/>
</g>
</svg>
